#!OML:ASF I:\Actors\actors\Patient Classification 1\Patient 1\Session 1\Subject1.ASF
:FULLY-SPECIFIED
:DEGREES
346
root -1.22234 14.6916 7.66199 26.8895 41.2311 -7.98842
lowerback 26.8251 1.199 4.55094
upperback -2.82565 2.72744 -2.18382
thorax -17.4269 0.60941 -6.04918
lowerneck -5.58096 -0.510404 -0.0630014
upperneck -1.87204 -0.641001 6.08729
head 0.383024 -0.250832 1.89736
rclavicle 8.18993e-014 -1.19271e-015
rhumerus -4.49959 31.624 -96.0647
rradius 136.798
rwrist 36.281
rhand 39.5165 -40.0355
rfingers 7.12502
rthumb 61.9932 -51.5378
lclavicle 8.18993e-014 -1.19271e-015
lhumerus -15.5163 -29.6693 99.4994
lradius 137.927
lwrist -16.5229
lhand 53.1717 4.48755
lfingers 7.12502
lthumb 71.8751 -6.92807
rfemur -65.3673 -1.87943 32.8875
rtibia 75.3392
rfoot -39.4444 -37.8639
rtoes 17.0046
lfemur -80.6727 -1.74387 0.295492
ltibia 63.8071
lfoot -19.2746 -4.90243
ltoes -23.0769
347
root -1.18428 14.917 7.72329 25.9303 41.1977 -8.5251
lowerback 25.6362 1.53614 4.54272
upperback -3.17902 3.14021 -2.12503
thorax -17.1865 0.798219 -6.10525
lowerneck -5.76721 -0.489408 -0.0581764
upperneck -1.6827 -0.624727 6.31671
head 0.475254 -0.232265 1.9724
rclavicle 5.88403e-014 -9.93923e-015
rhumerus -4.09527 31.4617 -95.5494
rradius 136.78
rwrist 36.2906
rhand 39.8241 -40.354
rfingers 7.12502
rthumb 62.2493 -51.534
lclavicle 5.88403e-014 -9.93923e-015
lhumerus -15.4324 -29.5424 99.4002
lradius 138.082
lwrist -16.4927
lhand 54.0452 3.93868
lfingers 7.12502
lthumb 72.3438 -9.76085
rfemur -62.8493 -2.32727 33.31
rtibia 72.5492
rfoot -38.6875 -37.0287
rtoes 17.1164
lfemur -78.0796 -1.87269 0.686492
ltibia 61.4492
lfoot -18.8267 -5.35275
ltoes -23.0801
348
root -1.13673 15.16 7.78374 24.7459 41.3547 -8.84297
lowerback 24.8447 1.5789 4.72859
upperback -3.52236 3.22802 -2.14477
thorax -17.1623 0.812137 -6.24775
lowerneck -6.01214 -0.354193 0.126701
upperneck -1.27876 -0.48166 6.47554
head 0.639138 -0.145352 1.99707
rclavicle 3.93594e-014 -3.45885e-014
rhumerus -3.72995 31.8021 -95.1599
rradius 136.641
rwrist 36.4176
rhand 39.4858 -40.6827
rfingers 7.12502
rthumb 61.9676 -52.2169
lclavicle 3.93594e-014 -3.45885e-014
lhumerus -15.4018 -29.4416 99.1292
lradius 138.125
lwrist -16.5221
lhand 54.284 3.90667
lfingers 7.12502
lthumb 72.4667 -10.4384
rfemur -59.8677 -3.33089 33.5293
rtibia 69.5304
rfoot -37.8742 -36.2736
rtoes 16.9928
lfemur -75.0589 -2.5563 0.979728
ltibia 58.8423
lfoot -18.4003 -5.60727
ltoes -23.6265
349
root -1.08293 15.399 7.85151 23.574 41.2036 -9.31448
lowerback 23.766 1.75726 4.8332
upperback -3.94577 3.47372 -2.08121
thorax -17.0597 0.911784 -6.29691
lowerneck -6.23504 -0.246553 0.184243
upperneck -0.699029 -0.381097 6.50088
head 0.856978 -0.0778889 2.00205
rclavicle 3.57812e-015 -1.63003e-014
rhumerus -3.61122 32.1318 -94.951
rradius 136.573
rwrist 36.4484
rhand 38.8972 -41.1082
rfingers 7.12502
rthumb 61.4749 -53.2409
lclavicle 3.57812e-015 -1.63003e-014
lhumerus -15.4964 -29.3511 99.2059
lradius 138.047
lwrist -16.5858
lhand 54.0082 4.10271
lfingers 7.12502
lthumb 72.3245 -9.49749
rfemur -56.8992 -4.05351 33.7865
rtibia 66.4172
rfoot -37.0053 -35.4162
rtoes 16.7732
lfemur -71.9217 -2.91058 1.31115
ltibia 56.0081
lfoot -18.0233 -5.75478
ltoes -23.6563
350
root -1.02607 15.6412 7.9203 22.3018 41.0764 -9.7325
lowerback 22.5228 1.94616 5.01755
upperback -3.90399 3.75665 -1.88707
thorax -16.8807 1.01007 -6.45524
lowerneck -6.79586 -0.166596 0.260621
upperneck 0.059001 -0.336159 6.38663
head 1.1928 -0.0307126 1.96163
rclavicle 3.77691e-014 3.33958e-014
rhumerus -3.17051 32.2226 -94.571
rradius 136.521
rwrist 36.2162
rhand 38.5879 -41.4823
rfingers 7.12502
rthumb 61.2146 -53.9209
lclavicle 3.77691e-014 3.33958e-014
lhumerus -15.2183 -29.3148 99.2867
lradius 137.946
lwrist -16.6483
lhand 53.6173 4.03749
lfingers 7.12502
lthumb 72.1178 -8.52793
rfemur -53.6942 -4.94985 33.9948
rtibia 63.0685
rfoot -36.053 -34.5413
rtoes 15.914
lfemur -68.5929 -3.46476 1.62678
ltibia 53.0533
lfoot -17.533 -5.90974
ltoes -23.2038
351
root -0.966384 15.8874 7.992 20.8924 41.0468 -10.0508
lowerback 21.4374 2.10305 5.2181
upperback -4.13855 3.98848 -1.83083
thorax -16.4682 1.12305 -6.51136
lowerneck -7.52505 -0.111096 0.40807
upperneck 1.08762 -0.351555 6.3512
head 1.65305 -0.00285175 1.93876
rclavicle 5.24792e-014 4.77083e-015
rhumerus -2.79456 32.1785 -94.2435
rradius 136.478
rwrist 35.9361
rhand 38.3473 -41.7938
rfingers 7.12502
rthumb 61.0116 -54.4664
lclavicle 5.24792e-014 4.77083e-015
lhumerus -14.9828 -29.4329 99.3281
lradius 137.925
lwrist -16.5235
lhand 53.498 3.99811
lfingers 7.12502
lthumb 72.0536 -8.25641
rfemur -50.1317 -6.08319 34.0934
rtibia 59.4443
rfoot -35.0668 -33.634
rtoes 14.9492
lfemur -65.0407 -4.35368 1.90779
ltibia 50.018
lfoot -16.8911 -6.0006
ltoes -22.9302
352
root -0.901178 16.1331 8.06843 19.3389 40.9564 -10.3944
lowerback 20.5412 2.30783 5.53773
upperback -4.43913 4.31375 -1.85102
thorax -16.22 1.24979 -6.76886
lowerneck -7.82358 -0.178963 0.55983
upperneck 1.96969 -0.52327 6.54161
head 2.00269 -0.0561132 1.98023
rclavicle -4.45278e-014 6.36111e-015
rhumerus -2.81315 32.0357 -94.185
rradius 136.558
rwrist 35.8408
rhand 38.0337 -42.1115
rfingers 7.12502
rthumb 60.7461 -55.0839
lclavicle -4.45278e-014 6.36111e-015
lhumerus -14.8874 -29.7272 99.3302
lradius 137.987
lwrist -16.3351
lhand 53.6553 4.03357
lfingers 7.12502
lthumb 72.1382 -8.63131
rfemur -46.2436 -7.19767 34.095
rtibia 55.5684
rfoot -34.028 -32.6519
rtoes 14.3925
lfemur -61.2448 -5.41269 2.22293
ltibia 46.828
lfoot -16.1771 -5.87715
ltoes -23.0217
353
root -0.829365 16.3737 8.14816 17.6804 40.7897 -10.7136
lowerback 19.7335 2.46102 5.90188
upperback -4.76043 4.58254 -1.87474
thorax -16.0507 1.34212 -7.03963
lowerneck -7.21019 -0.217989 -0.788983
upperneck 1.99754 -0.513067 8.76801
head 1.9412 -0.0102397 2.97203
rclavicle 4.65156e-014 -4.85035e-014
rhumerus -3.04849 32.1199 -94.3383
rradius 136.72
rwrist 35.8962
rhand 37.9022 -42.5313
rfingers 7.12502
rthumb 60.6346 -55.6277
lclavicle 4.65156e-014 -4.85035e-014
lhumerus -14.8826 -29.9592 99.2521
lradius 138.064
lwrist -16.3157
lhand 53.6875 4.19873
lfingers 7.12502
lthumb 72.1554 -8.55085
rfemur -42.1201 -8.2563 33.9277
rtibia 51.523
rfoot -32.7791 -31.7196
rtoes 13.1678
lfemur -57.2142 -6.74406 2.54221
ltibia 43.4707
lfoot -15.4244 -5.49419
ltoes -23.0641
354
root -0.753515 16.6067 8.23014 15.9224 40.5499 -10.919
lowerback 18.9477 2.55997 6.13082
upperback -4.94317 4.74362 -1.82713
thorax -15.7528 1.41657 -7.10414
lowerneck -7.34126 -0.186296 -1.27305
upperneck 2.91443 -0.530614 9.59212
head 2.28751 0.0280994 3.36626
rclavicle -2.82274e-014 -2.38542e-015
rhumerus -2.88171 32.2975 -94.1861
rradius 136.839
rwrist 35.8922
rhand 37.7512 -43.2177
rfingers 7.12502
rthumb 60.5063 -56.4552
lclavicle -2.82274e-014 -2.38542e-015
lhumerus -14.6057 -30.1068 99.02
lradius 138.072
lwrist -16.4281
lhand 53.6461 4.43256
lfingers 7.12502
lthumb 72.1332 -8.20823
rfemur -37.7892 -9.25487 33.5368
rtibia 47.4772
rfoot -31.561 -30.824
rtoes 11.581
lfemur -52.9073 -8.45455 2.77488
ltibia 39.9492
lfoot -14.6332 -4.93811
ltoes -22.3955
355
root -0.679061 16.8293 8.31241 14.0897 40.2959 -11.0171
lowerback 18.5009 2.6641 6.22004
upperback -5.15812 4.90321 -1.73669
thorax -15.716 1.48732 -7.07027
lowerneck -7.69236 -0.163573 -1.09433
upperneck 4.28972 -0.631782 9.53358
head 2.82062 0.0253155 3.33972
rclavicle -5.9039e-014 -1.90833e-014
rhumerus -2.68809 32.3576 -93.8617
rradius 136.947
rwrist 35.8308
rhand 37.2405 -43.967
rfingers 7.12502
rthumb 60.071 -57.6726
lclavicle -5.9039e-014 -1.90833e-014
lhumerus -14.3669 -30.2585 98.8589
lradius 138.086
lwrist -16.6928
lhand 53.561 4.58475
lfingers 7.12502
lthumb 72.0876 -7.83364
rfemur -33.2813 -10.1577 32.9728
rtibia 43.4336
rfoot -30.5469 -29.9685
rtoes 10.6421
lfemur -48.4104 -10.5027 2.86395
ltibia 36.3158
lfoot -13.8256 -4.19362
ltoes -21.9469
